General
Complete name                            : Forbrydelsen.III.E10.DANiSH.720p.HDTV.x264-DTV.mkv
Subtitle                                 : Forbrydelsen.III.E10.DANiSH.720p.HDTV.x264-DTV.srt (dutch)
Format                                   : Matroska
Format version                           : Version 2
File size                                : 1.05 GiB
Duration                                 : 1h 0mn
Overall bit rate                         : 2 510 Kbps
Encoded date                             : UTC 2012-11-25 19:01:11
Writing application                      : mkvmerge v4.8.0 ('SALVATION') built on May 24 2011 03:12:58
Writing library                          : libebml v1.2.0 + libmatroska v1.1.0

Video
ID                                       : 1
Format                                   : AVC
Format/Info                              : Advanced Video Codec
Format profile                           : High@L4.1
Format settings, CABAC                   : Yes
Format settings, ReFrames                : 5 frames
Codec ID                                 : V_MPEG4/ISO/AVC
Duration                                 : 1h 0mn
Bit rate                                 : 2 012 Kbps
Width                                    : 1 280 pixels
Height                                   : 720 pixels
Display aspect ratio                     : 16:9
Frame rate                               : 25.000 fps
Color space                              : YUV
Chroma subsampling                       : 4:2:0
Bit depth                                : 8 bits
Scan type                                : Progressive
Bits/(Pixel*Frame)                       : 0.087
Stream size                              : 865 MiB (80%)
Writing library                          : x264 core 129 r2230 1cffe9f
Default                                  : Yes
Forced                                   : No

Audio
ID                                       : 2
Format                                   : AC-3
Format/Info                              : Audio Coding 3
Mode extension                           : CM (complete main)
Format settings, Endianness              : Big
Codec ID                                 : A_AC3
Duration                                 : 1h 0mn
Bit rate mode                            : Constant
Bit rate                                 : 448 Kbps
Channel(s)                               : 6 channels
Channel positions                        : Front: L C R, Side: L R, LFE
Sampling rate                            : 48.0 KHz
Bit depth                                : 16 bits
Compression mode                         : Lossy
Stream size                              : 193 MiB (18%)
Default                                  : Yes
Forced                                   : No

